<?xml version="1.0" standalone="no"?>
<!DOCTYPE svg PUBLIC "-//W3C//DTD SVG 20010904//EN"
 "http://www.w3.org/TR/2001/REC-SVG-20010904/DTD/svg10.dtd">
<svg version="1.0" xmlns="http://www.w3.org/2000/svg"
 width="600.000000pt" height="600.000000pt" viewBox="0 0 600.000000 600.000000"
 preserveAspectRatio="xMidYMid meet">
<metadata>
Created by potrace 1.11, written by Peter Selinger 2001-2013
</metadata>
<g transform="translate(0.000000,600.000000) scale(0.100000,-0.100000)"
fill="#000000" stroke="none">
<path d="M2634 5989 c-3 -5 -16 -6 -30 -3 -13 3 -24 2 -24 -2 0 -5 -19 -10
-43 -11 -53 -3 -68 -6 -86 -17 -10 -7 -12 -5 -6 3 6 10 3 11 -13 2 -12 -6 -34
-13 -49 -15 -25 -4 -68 -13 -98 -20 -5 -2 -23 -6 -40 -10 -16 -4 -37 -10 -45
-13 -21 -8 -55 -18 -95 -26 -5 -2 -15 -6 -22 -10 -6 -4 -23 -8 -37 -9 -14 -1
-26 -6 -26 -10 0 -4 -3 -7 -7 -6 -5 1 -21 -4 -38 -11 -16 -7 -38 -14 -48 -16
-9 -2 -23 -7 -30 -12 -6 -4 -14 -8 -17 -9 -3 0 -18 -6 -35 -13 -16 -7 -36 -14
-43 -15 -8 -1 -18 -9 -23 -17 -5 -8 -9 -10 -9 -5 0 5 -6 3 -13 -3 -8 -6 -17
-8 -20 -4 -4 3 -7 1 -7 -5 0 -7 -9 -12 -19 -12 -11 0 -21 -3 -23 -8 -1 -4 -33
-22 -70 -39 -36 -18 -69 -37 -73 -43 -3 -6 -10 -8 -15 -5 -4 3 -13 -2 -20 -10
-7 -8 -18 -15 -24 -15 -7 0 -21 -7 -31 -15 -11 -8 -56 -38 -100 -66 -44 -28
-81 -55 -83 -60 -2 -5 -8 -9 -13 -9 -10 0 -24 -10 -60 -42 -10 -10 -19 -15
-19 -12 0 3 -6 -1 -14 -8 -7 -7 -31 -26 -52 -43 -21 -16 -49 -41 -61 -54 -13
-13 -23 -20 -23 -16 0 5 -11 -6 -25 -25 -14 -19 -25 -30 -25 -25 0 5 -54 -46
-120 -113 -66 -67 -120 -126 -120 -130 0 -4 -8 -15 -17 -23 -27 -23 -74 -79
-68 -79 4 0 -5 -11 -19 -23 -14 -13 -23 -27 -19 -30 3 -4 2 -7 -4 -7 -5 0 -27
-26 -48 -57 -36 -53 -68 -97 -96 -130 -5 -7 -6 -13 -2 -13 4 0 -1 -7 -11 -15
-11 -8 -16 -15 -12 -15 4 0 -7 -20 -23 -44 -17 -24 -28 -46 -25 -48 2 -3 -2
-11 -11 -18 -8 -7 -15 -17 -15 -22 0 -6 -9 -23 -21 -39 -11 -16 -22 -36 -23
-43 -1 -7 -9 -24 -17 -37 -9 -13 -19 -34 -23 -46 -4 -13 -12 -23 -17 -23 -6 0
-7 -5 -4 -10 4 -6 3 -16 -2 -23 -6 -7 -16 -28 -23 -47 -7 -19 -20 -44 -29 -54
-13 -16 -13 -18 -1 -11 12 7 13 6 4 -6 -9 -12 -47 -105 -49 -119 0 -3 -4 -11
-8 -17 -5 -7 -6 -13 -3 -13 3 0 -2 -17 -10 -37 -9 -20 -18 -44 -20 -52 -2 -9
-13 -50 -24 -91 -12 -41 -23 -84 -26 -95 -11 -54 -15 -73 -21 -105 -3 -19 -6
-43 -7 -52 0 -10 -3 -18 -6 -18 -4 0 -6 -16 -5 -35 0 -19 -2 -35 -5 -35 -3 0
-7 -15 -8 -32 0 -18 -4 -51 -7 -73 -10 -60 -16 -575 -7 -575 4 0 6 -24 6 -52
-1 -29 1 -57 4 -62 4 -8 11 -64 16 -133 0 -13 3 -23 6 -23 3 0 6 -8 6 -17 1
-10 4 -31 8 -48 3 -16 8 -41 11 -55 7 -35 12 -57 30 -125 9 -33 17 -66 17 -72
1 -7 5 -13 9 -13 4 0 6 -8 4 -17 -1 -10 4 -28 11 -40 8 -13 12 -23 9 -23 -2 0
4 -22 15 -50 11 -27 17 -50 13 -50 -4 0 -2 -5 5 -12 7 -7 12 -20 12 -30 0 -10
4 -18 10 -18 5 0 9 -3 9 -8 -1 -4 0 -10 1 -14 1 -5 3 -11 5 -15 3 -13 24 -61
50 -119 14 -30 24 -57 24 -60 0 -4 3 -10 8 -13 5 -3 26 -41 47 -85 21 -43 45
-86 52 -95 8 -9 15 -20 15 -26 1 -5 15 -30 33 -55 17 -25 30 -48 28 -52 -1 -5
3 -8 8 -8 6 0 10 -4 10 -10 0 -5 10 -21 23 -36 12 -14 21 -28 19 -31 -2 -2 7
-13 19 -24 12 -10 19 -19 16 -19 -6 0 20 -34 51 -66 6 -7 12 -17 12 -23 0 -6
5 -11 10 -11 6 0 10 -7 10 -15 0 -8 7 -15 15 -15 8 0 15 -7 15 -15 0 -8 5 -15
10 -15 6 0 10 -5 10 -10 0 -6 17 -28 39 -50 21 -21 49 -51 62 -67 13 -16 27
-28 30 -28 3 0 19 -16 35 -35 48 -57 159 -160 172 -160 5 0 12 -10 15 -22 4
-12 9 -19 12 -16 6 5 31 -13 76 -54 10 -10 19 -15 19 -11 0 3 8 -4 19 -15 10
-12 21 -19 25 -15 3 3 6 0 6 -8 0 -8 13 -20 29 -27 16 -7 38 -20 49 -30 23
-20 34 -27 122 -83 36 -23 71 -42 78 -42 6 0 12 -3 12 -7 0 -9 155 -90 173
-90 8 0 18 -7 21 -16 3 -8 10 -12 16 -9 5 3 10 2 10 -2 0 -9 69 -39 83 -35 4
1 7 -3 7 -8 0 -6 9 -10 19 -10 11 0 26 -6 33 -13 7 -8 19 -12 26 -9 6 2 12 -1
12 -7 0 -6 7 -8 15 -5 8 4 15 1 15 -5 0 -6 3 -10 8 -10 4 1 10 0 15 -1 4 -1
12 -4 17 -5 6 -1 12 -4 15 -5 3 -1 8 -3 13 -5 17 -5 48 -17 64 -26 10 -5 29
-9 42 -9 14 0 28 -5 31 -11 4 -6 13 -8 20 -5 7 2 16 2 19 -2 4 -3 12 -7 19 -9
7 -1 30 -7 52 -13 58 -16 88 -22 103 -23 6 0 12 -3 12 -7 0 -4 14 -6 30 -5 17
1 30 -1 30 -5 0 -3 12 -7 28 -7 15 -1 38 -4 52 -7 22 -5 78 -13 150 -21 14 -2
25 -4 25 -5 0 -1 30 -3 67 -4 37 -1 69 -4 72 -7 8 -7 491 3 491 11 0 2 11 4
25 5 22 2 98 12 155 20 11 2 20 4 20 5 0 2 11 3 25 4 14 1 30 4 35 7 6 4 20 5
33 4 12 -1 22 3 22 8 0 6 2 8 5 5 3 -3 36 3 72 13 37 10 71 15 75 13 4 -3 8
-1 8 3 0 8 23 13 67 16 7 0 10 4 7 9 -3 4 4 9 15 9 29 2 34 3 48 12 7 5 13 6
13 2 0 -3 10 0 23 7 22 12 42 18 65 20 6 1 12 5 12 10 0 5 5 6 10 3 6 -3 10
-1 10 6 0 7 3 10 6 6 4 -3 19 0 35 9 16 8 29 12 29 8 0 -4 7 -1 15 6 8 7 15 9
15 4 0 -5 5 -1 11 8 5 9 15 15 23 12 7 -3 18 2 25 10 7 8 19 12 27 9 8 -3 14
0 14 5 0 6 16 16 35 23 19 7 35 17 35 21 0 4 3 7 8 6 11 -2 85 33 104 50 10 8
18 12 18 8 0 -4 13 2 29 13 16 12 32 21 35 21 4 0 16 9 28 20 12 10 25 17 30
14 4 -3 8 -1 8 5 0 6 16 17 35 26 19 9 46 28 61 41 14 14 28 23 31 20 3 -3 16
7 30 22 13 15 21 20 17 12 -3 -8 7 0 25 18 17 18 31 30 31 26 0 -4 10 2 23 14
13 12 27 19 32 15 4 -5 5 -3 2 3 -4 7 0 17 8 24 8 7 15 10 15 7 0 -4 15 8 33
26 18 18 41 36 50 40 10 4 16 11 12 17 -3 5 6 12 20 16 13 3 23 9 21 13 -5 9
21 31 28 24 3 -4 6 -1 6 5 0 6 43 53 95 106 52 52 95 98 95 102 0 4 13 20 30
35 16 16 27 29 25 29 -3 0 0 6 7 14 7 8 17 11 22 9 5 -3 7 0 4 8 -2 7 5 23 16
35 28 29 46 52 81 104 17 25 33 47 38 48 4 2 5 8 1 13 -3 5 -1 9 4 9 6 0 25
26 44 57 18 32 43 73 55 93 13 19 28 46 34 60 5 13 13 27 17 30 4 3 16 25 27
50 10 25 27 57 38 72 10 16 15 28 11 28 -4 0 1 9 11 20 10 11 15 20 11 20 -3
0 5 23 19 50 14 28 22 50 19 50 -4 0 0 8 9 18 8 9 16 20 16 25 1 4 1 8 2 10 0
1 2 9 4 17 2 8 17 53 33 100 16 47 33 99 37 115 5 17 9 35 11 40 11 38 37 133
40 150 2 11 7 34 10 50 4 17 7 38 8 48 0 9 4 17 9 17 4 0 6 3 3 8 -2 4 0 30 5
57 9 48 20 142 23 195 1 14 4 30 7 35 8 13 8 477 1 490 -6 9 -12 56 -15 128
-1 15 -4 27 -7 27 -3 0 -5 18 -5 40 0 22 -2 40 -6 40 -3 0 -5 14 -4 30 1 17
-1 30 -4 30 -3 0 -7 19 -9 41 -1 23 -7 50 -13 60 -5 11 -7 24 -4 29 3 6 2 10
-2 10 -5 0 -9 8 -10 18 -2 36 -12 82 -19 94 -8 12 -12 24 -18 58 -1 8 -5 22
-8 30 -13 34 -21 55 -23 63 -2 4 -3 8 -5 10 -1 2 -3 8 -14 52 -2 11 -12 35
-21 52 -9 18 -14 37 -10 43 3 5 2 10 -3 10 -5 0 -13 10 -17 23 -4 12 -8 24 -9
27 -1 3 -7 15 -14 26 -6 12 -8 24 -5 28 3 3 1 6 -5 6 -7 0 -12 5 -12 10 0 13
-72 160 -110 225 -17 28 -33 57 -37 65 -4 8 -13 21 -20 28 -7 8 -11 18 -8 23
4 5 2 9 -2 9 -10 0 -49 62 -45 73 1 4 -2 7 -6 7 -5 0 -31 33 -57 73 -27 39
-57 79 -67 88 -10 9 -18 19 -18 23 0 7 -31 45 -72 88 -16 16 -28 32 -28 35 0
7 -5 12 -141 151 -49 50 -93 92 -95 92 -3 0 -23 18 -44 40 -21 22 -43 40 -50
40 -6 0 -13 7 -16 15 -4 8 -13 15 -21 15 -8 0 -11 5 -8 10 3 6 -1 10 -9 10 -9
0 -16 5 -16 10 0 6 -7 10 -15 10 -8 0 -15 5 -15 10 0 6 -11 15 -25 22 -13 6
-22 15 -19 19 3 5 -2 9 -10 9 -8 0 -21 6 -28 13 -7 6 -33 25 -58 42 -25 16
-47 32 -50 35 -3 3 -22 14 -42 25 -21 11 -38 22 -38 25 0 4 -18 14 -40 24 -22
10 -40 22 -40 27 0 6 -4 7 -10 4 -5 -3 -10 -1 -10 5 0 6 -4 9 -9 6 -5 -4 -11
-3 -13 1 -3 9 -77 46 -120 62 -16 6 -28 15 -28 21 0 5 -3 9 -7 8 -9 -1 -30 6
-88 32 -22 10 -71 30 -110 45 -38 15 -83 32 -100 38 -16 7 -33 11 -37 9 -5 -1
-8 2 -8 6 0 4 -8 8 -18 9 -11 1 -47 11 -82 22 -35 12 -73 21 -85 21 -12 0 -25
3 -29 7 -3 4 -12 8 -19 9 -7 2 -22 5 -33 8 -12 2 -39 7 -60 11 -45 8 -69 13
-69 15 0 3 -40 9 -90 14 -27 3 -50 6 -50 7 0 13 -752 22 -761 8z"/>
</g>
</svg>
